{
    "asset" : {
        "generator" : "Khronos glTF Blender I/O v1.6.16",
        "version" : "2.0"
    },
    "scene" : 0,
    "scenes" : [
        {
            "name" : "Scene",
            "nodes" : [
                0
            ]
        }
    ],
    "nodes" : [
        {
            "mesh" : 0,
            "name" : "Cube.056",
            "rotation" : [
                0,
                -0.782608151435852,
                -0.6225146651268005,
                8.629625369849236e-08
            ],
            "scale" : [
                -1.009056806564331,
                -0.38154494762420654,
                -1.0041903257369995
            ]
        }
    ],
    "materials" : [
        {
            "doubleSided" : true,
            "name" : "Matttt.001",
            "pbrMetallicRoughness" : {
                "baseColorTexture" : {
                    "index" : 0
                },
                "metallicFactor" : 0,
                "roughnessFactor" : 0.5
            }
        }
    ],
    "meshes" : [
        {
            "name" : "Cube.080",
            "primitives" : [
                {
                    "attributes" : {
                        "POSITION" : 0,
                        "NORMAL" : 1,
                        "TEXCOORD_0" : 2
                    },
                    "indices" : 3,
                    "material" : 0
                }
            ]
        }
    ],
    "textures" : [
        {
            "sampler" : 0,
            "source" : 0
        }
    ],
    "images" : [
        {
            "mimeType" : "image/png",
            "name" : "SofajardinCM",
            "uri" : "SofajardinCM.png"
        }
    ],
    "accessors" : [
        {
            "bufferView" : 0,
            "componentType" : 5126,
            "count" : 1171,
            "max" : [
                3.3406569957733154,
                2.4549789428710938,
                -1.85609769821167
            ],
            "min" : [
                0.6357462406158447,
                -0.018582820892333984,
                -4.082794189453125
            ],
            "type" : "VEC3"
        },
        {
            "bufferView" : 1,
            "componentType" : 5126,
            "count" : 1171,
            "type" : "VEC3"
        },
        {
            "bufferView" : 2,
            "componentType" : 5126,
            "count" : 1171,
            "type" : "VEC2"
        },
        {
            "bufferView" : 3,
            "componentType" : 5123,
            "count" : 6024,
            "type" : "SCALAR"
        }
    ],
    "bufferViews" : [
        {
            "buffer" : 0,
            "byteLength" : 14052,
            "byteOffset" : 0
        },
        {
            "buffer" : 0,
            "byteLength" : 14052,
            "byteOffset" : 14052
        },
        {
            "buffer" : 0,
            "byteLength" : 9368,
            "byteOffset" : 28104
        },
        {
            "buffer" : 0,
            "byteLength" : 12048,
            "byteOffset" : 37472
        }
    ],
    "samplers" : [
        {
            "magFilter" : 9729,
            "minFilter" : 9987
        }
    ],
    "buffers" : [
        {
            "byteLength" : 49520,
            "uri" : "SofaJardin-cojin.bin"
        }
    ]
}
